<?xml version="1.0" encoding="UTF-8"?>
<svg id="Capa_1" data-name="Capa 1" xmlns="http://www.w3.org/2000/svg" viewBox="0 0 500 175.54">
  <path d="M73.72,27.38l-.42-.07h-6.85l-.28-16.32-.68-1.14C61.96,3.86,54.38.18,45.21,0c-7.66-.14-17.54,2.32-22.27,9.67l-.8,1.24v16.39h-6.09l-1.1.24C4.28,30.93-1.34,40.37.27,52.18c1.27,9.25,7.31,19.25,16.02,19.55h20.88s2.6-5.67,2.6-5.67v44.26h-23.3v10.06h23.3v5.19h-7.44v10.06h7.44v5.42h-7.44v10.06h7.44v7.31h-23.3v10.06h23.3v4.2c0,1.58,1.28,2.86,2.86,2.86h4.57c1.45,0,2.63-1.18,2.63-2.63V47.71h-10.06v13.97h-23.17c-1.72-.14-5.47-4.4-6.36-10.86-.53-3.9-.29-10.71,7.07-13.44h2.57l2.26-5.83v18.18h10.06v-12.35h22.23l2.12-5.96.21,18.39,10.06-.17-.21-12.27h5.77c5.02,1.14,7.21,7.36,7.11,12.79-.09,5.17-2.3,10.67-7.01,11.51h-13.78v10.06h14.5l.34-.05c9.37-1.27,15.8-9.85,16.01-21.35.21-11.88-6.3-21.32-15.83-22.96ZM32.2,27.31v-13.19c2.44-2.53,7.49-4.15,12.81-4.05,4.88.09,9.08,1.62,11.14,3.97l.22,13.28h-24.18Z" style="fill: #e35336;"/>
  <g>
    <path d="M61.93,144.07v-54.57h40.46v9.23h-29.44v12.1h27.39v9.19h-27.39v14.85h30.48v9.19h-41.5Z" style="fill: #e35336;"/>
    <path d="M114.72,144.07v-54.57h23.19c5.83,0,10.07.49,12.71,1.47,2.64.98,4.76,2.72,6.35,5.23s2.38,5.37,2.38,8.6c0,4.09-1.2,7.47-3.61,10.14-2.41,2.67-6.01,4.35-10.79,5.04,2.38,1.39,4.35,2.92,5.9,4.58,1.55,1.66,3.64,4.62,6.27,8.86l6.66,10.65h-13.18l-7.96-11.87c-2.83-4.24-4.76-6.92-5.81-8.02s-2.15-1.86-3.31-2.27c-1.17-.41-3.02-.61-5.55-.61h-2.23v22.78h-11.02ZM125.73,112.58h8.15c5.29,0,8.59-.22,9.9-.67,1.32-.45,2.35-1.22,3.09-2.31.74-1.09,1.12-2.46,1.12-4.09,0-1.84-.49-3.32-1.47-4.45-.98-1.13-2.36-1.84-4.15-2.14-.89-.12-3.57-.19-8.04-.19h-8.6v13.85Z" style="fill: #e35336;"/>
    <path d="M171.67,144.07v-54.57h23.19c5.83,0,10.07.49,12.71,1.47,2.64.98,4.76,2.72,6.35,5.23s2.38,5.37,2.38,8.6c0,4.09-1.2,7.47-3.61,10.14-2.41,2.67-6.01,4.35-10.79,5.04,2.38,1.39,4.35,2.92,5.9,4.58,1.55,1.66,3.64,4.62,6.27,8.86l6.66,10.65h-13.18l-7.96-11.87c-2.83-4.24-4.76-6.92-5.81-8.02s-2.15-1.86-3.31-2.27c-1.17-.41-3.02-.61-5.55-.61h-2.23v22.78h-11.02ZM182.69,112.58h8.15c5.29,0,8.59-.22,9.9-.67,1.32-.45,2.35-1.22,3.09-2.31.74-1.09,1.12-2.46,1.12-4.09,0-1.84-.49-3.32-1.47-4.45-.98-1.13-2.36-1.84-4.15-2.14-.89-.12-3.57-.19-8.04-.19h-8.6v13.85Z" style="fill: #e35336;"/>
    <path d="M277.8,144.07h-11.99l-4.76-12.39h-21.81l-4.5,12.39h-11.69l21.25-54.57h11.65l21.85,54.57ZM257.51,122.48l-7.52-20.25-7.37,20.25h14.89Z" style="fill: #e35336;"/>
    <path d="M285.66,144.07v-54.57h10.72l22.33,36.44v-36.44h10.24v54.57h-11.05l-22-35.58v35.58h-10.24Z" style="fill: #e35336;"/>
    <path d="M340.27,117.12c0-5.56.83-10.22,2.49-13.99,1.24-2.78,2.93-5.27,5.08-7.48,2.15-2.21,4.5-3.85,7.05-4.91,3.4-1.44,7.32-2.16,11.76-2.16,8.04,0,14.47,2.49,19.3,7.48,4.83,4.99,7.24,11.92,7.24,20.81s-2.39,15.7-7.18,20.68c-4.79,4.98-11.19,7.46-19.21,7.46s-14.57-2.48-19.35-7.43c-4.79-4.95-7.18-11.77-7.18-20.45ZM351.62,116.75c0,6.18,1.43,10.86,4.28,14.05,2.85,3.19,6.48,4.78,10.87,4.78s8-1.58,10.81-4.75c2.82-3.16,4.22-7.91,4.22-14.24s-1.37-10.92-4.11-14c-2.74-3.08-6.38-4.61-10.92-4.61s-8.2,1.56-10.98,4.67c-2.78,3.11-4.17,7.81-4.17,14.09Z" style="fill: #e35336;"/>
    <path d="M417.62,144.07l-19.5-54.57h11.95l13.81,40.39,13.36-40.39h11.69l-19.54,54.57h-11.76Z" style="fill: #e35336;"/>
    <path d="M500,144.07h-11.99l-4.76-12.39h-21.81l-4.5,12.39h-11.69l21.25-54.57h11.65l21.85,54.57ZM479.71,122.48l-7.52-20.25-7.37,20.25h14.89Z" style="fill: #e35336;"/>
  </g>
</svg>