<?xml version="1.0" encoding="UTF-8"?>
<svg id="Capa_1" data-name="Capa 1" xmlns="http://www.w3.org/2000/svg" viewBox="0 0 255.1 500">
  <path d="M209.99,77.99l-1.21-.21h-19.52l-.78-46.5-1.92-3.26C176.5,10.98,154.89.51,128.77.02c-21.82-.4-49.97,6.6-63.42,27.55l-2.27,3.54v46.68h-17.35l-3.14.67C12.19,88.11-3.83,115,.78,148.62c3.61,26.34,20.83,54.82,45.64,55.69h59.46s7.41-16.15,7.41-16.15v126.06H46.93v28.65h66.36v14.79h-21.19v28.65h21.19v15.45h-21.19v28.65h21.19v20.83H46.93v28.65h66.36v11.95c0,4.5,3.65,8.14,8.14,8.14h13.03c4.13,0,7.49-3.35,7.49-7.49V135.88h-28.65v39.78H47.28c-4.91-.41-15.59-12.54-18.11-30.94-1.52-11.1-.82-30.52,20.14-38.29h7.32l6.45-16.61v51.79h28.65v-35.18h63.32l6.03-16.97.6,52.39,28.65-.48-.59-34.94h16.43c14.3,3.23,20.54,20.98,20.26,36.44-.26,14.72-6.55,30.38-19.98,32.79h-39.24v28.65h41.31l.96-.13c26.69-3.63,45.02-28.06,45.6-60.8.6-33.83-17.95-60.72-45.1-65.4ZM91.73,77.78v-37.57c6.96-7.2,21.34-11.81,36.5-11.54,13.89.26,25.86,4.61,31.73,11.3l.64,37.82h-68.87Z" style="fill: #e35336;"/>
</svg>
